<?xml version="1.0" encoding="utf-8"?>
<!-- Generator: Adobe Illustrator 27.5.0, SVG Export Plug-In . SVG Version: 6.00 Build 0)  -->
<svg version="1.1" xmlns="http://www.w3.org/2000/svg" xmlns:xlink="http://www.w3.org/1999/xlink" x="0px" y="0px"
	 viewBox="0 0 500 500" style="enable-background:new 0 0 500 500;" xml:space="preserve">
<g id="Background_Complete">
	<rect x="416.779" y="398.494" style="fill:#EBEBEB;" width="33.122" height="0.25"/>
	<rect x="322.527" y="401.208" style="fill:#EBEBEB;" width="8.693" height="0.25"/>
	<rect x="396.586" y="389.208" style="fill:#EBEBEB;" width="19.192" height="0.25"/>
	<rect x="52.459" y="390.888" style="fill:#EBEBEB;" width="43.193" height="0.25"/>
	<rect x="104.556" y="390.888" style="fill:#EBEBEB;" width="6.333" height="0.25"/>
	<rect x="131.471" y="395.111" style="fill:#EBEBEB;" width="93.676" height="0.25"/>
	<g>
		<path style="fill:#EBEBEB;" d="M238.401,337.8H45.302c-3.147,0-5.708-2.561-5.708-5.708V60.66c0-3.147,2.561-5.708,5.708-5.708
			h193.099c3.146,0,5.707,2.561,5.707,5.708v271.432C244.108,335.239,241.547,337.8,238.401,337.8z M45.302,55.203
			c-3.01,0-5.458,2.448-5.458,5.458v271.432c0,3.01,2.448,5.458,5.458,5.458h193.099c3.009,0,5.457-2.448,5.457-5.458V60.66
			c0-3.009-2.448-5.458-5.457-5.458H45.302z"/>
		<path style="fill:#EBEBEB;" d="M454.698,338.058H261.599c-3.146,0-5.707-2.56-5.707-5.708V60.919c0-3.147,2.561-5.708,5.707-5.708
			h193.099c3.148,0,5.708,2.561,5.708,5.708V332.35C460.406,335.498,457.845,338.058,454.698,338.058z M261.599,55.461
			c-3.009,0-5.457,2.448-5.457,5.458V332.35c0,3.01,2.448,5.458,5.457,5.458h193.099c3.01,0,5.458-2.448,5.458-5.458V60.919
			c0-3.009-2.448-5.458-5.458-5.458H261.599z"/>
	</g>
	<rect y="381.282" style="fill:#EBEBEB;" width="500" height="0.25"/>
	<g>
		<g>
			<path style="fill:#F5F5F5;" d="M263.556,125.534h37.715c0,0,8.844-3.331,7.701-12.153c-1.144-8.822-14.496-1.471-14.496-1.471
				s4.048-12.309-8.883-8.817c-12.931,3.492-14.191,15.696-14.191,15.696S254.417,115.823,263.556,125.534z"/>
		</g>
		<g>
			<g>
				<path style="fill:#F5F5F5;" d="M78.142,155.095c4.888,1.226,10.374-2.856,10.605-7.89c0.068-1.483-0.25-2.975-0.061-4.447
					c0.604-4.697,7.363-7.156,10.844-3.945c0.526-7.592,6.402-14.507,13.809-16.252c2.63-0.619,5.534-0.601,7.882,0.736
					c2.348,1.337,3.919,4.23,3.141,6.818c1.264-4.643,5.397-8.428,10.166-9.069c4.769-0.641,9.857,2.035,11.844,6.417
					c1.987,4.382,0.545,10.108-3.398,12.865c2.722-2.951,8.468-3.117,9.82-0.74c0.53,0.932,0.862,1.954,0.839,3.026
					c-0.129,5.842-4.444,9.772-9.768,12.181C138.542,157.202,82.527,157.399,78.142,155.095z"/>
			</g>
			<path style="fill:#F5F5F5;" d="M373.472,151.715c-0.008,0.161-0.016,0.323-0.024,0.484c-0.602,0.085,0.879,1.79,1.21,1.279
				c0.332-0.51-0.126-1.159-0.579-1.565c-3.817-3.419-9.548-4.539-14.371-2.809c-4.823,1.73-8.536,6.238-9.31,11.303
				c-3.44-4.104-9.96-4.183-14.803-1.898c-7.217,3.404-11.98,11.427-11.514,19.393c-3.977-1.951-9.262-0.67-11.905,2.885
				c-1.176,1.582-1.841,3.494-2.993,5.095c-1.784,2.48-4.747,4.07-7.799,4.187c11.646,2.387,58.462,1.237,69.99,1.462
				c5.038,0.098,10.134,0.537,15.077-0.445c4.943-0.982,9.853-3.668,12.064-8.196c2.21-4.529,0.688-10.952-3.955-12.911
				c2.933-5.233,1.694-12.443-2.818-16.397C387.229,149.63,378.274,148.12,373.472,151.715z"/>
		</g>
	</g>
	<g>
		<path style="fill:#EBEBEB;" d="M307.784,382.432c0,0-62.259-162.165-138.244-162.165c-85.191,0-116.995,160.929-116.995,160.929
			L307.784,382.432z"/>
		<path style="fill:#F0F0F0;" d="M42.851,381.926c0,0,185.434-143.837,304.36-163.441c98.762-16.28,116.201,163.871,116.201,163.871
			L42.851,381.926z"/>
		<path style="fill:#F5F5F5;" d="M177.295,383.066c0,0-76.855-23.66-88.691-24.186c-11.836-0.526-52.016,22.624-52.016,22.624
			L177.295,383.066z"/>
		<g>
			<path style="fill:#EBEBEB;" d="M283.089,271.184c-2.15-0.394-6.271,3.587-8.295,2.76c-1.556-0.635-1.843-4.831-3.069-5.981
				c-1.677-1.572-7.741-1.472-8.433-3.664c-1.428-4.521,5.298-15.029,9.898-16.178c3.301-0.824,8.536,5.721,11.726,6.905
				c2.959,1.098,10.329-0.118,12.422,2.243c2.422,2.732,1.959,11.523,0,14.604c-1.261,1.983-6.208,4.453-8.512,3.987
				C287.013,275.495,284.91,271.517,283.089,271.184z"/>
			<path style="fill:#E0E0E0;" d="M274.914,265.331c-0.845-0.906-3.669-3.014-3.669-3.014l0.104-0.332l4.016,2.714l1.63-4.805
				l0.268,0.222c0,0-1.308,3.557-1.105,4.81c0.439,2.712,6.109,8.758,6.109,8.758h0c0,0,4.064-4.645,4.822-6.526
				c0.627-1.556,0.865-6.653,0.865-6.653l0.268,0.042l-0.352,5.965l5.998-4.932l0.104,0.332c0,0-4.854,3.853-6.169,5.432
				c-1.014,1.219-2.922,4.626-3.885,6.389c-0.385,0.706-0.574,1.501-0.55,2.304l0.484,16.895h-2.821l0.47-16.245
				c0.033-1.056-0.498-2.099-1.035-3.008C279.112,271.385,276.409,266.932,274.914,265.331z"/>
		</g>
		<g>
			<path style="fill:#EBEBEB;" d="M201.649,340.3c-2.566-0.47-7.484,4.281-9.899,3.294c-1.857-0.758-2.2-5.766-3.663-7.138
				c-2.001-1.876-9.238-1.757-10.064-4.373c-1.704-5.396,6.323-17.936,11.813-19.307c3.939-0.984,10.188,6.828,13.994,8.241
				c3.531,1.311,12.327-0.141,14.825,2.677c2.89,3.261,2.338,13.752,0,17.429c-1.505,2.367-7.409,5.314-10.158,4.759
				C206.332,345.445,203.821,340.699,201.649,340.3z"/>
			<path style="fill:#E0E0E0;" d="M191.893,333.316c-1.009-1.081-4.378-3.597-4.378-3.597l0.124-0.396l4.792,3.239l1.946-5.734
				l0.32,0.265c0,0-1.561,4.245-1.318,5.741c0.524,3.236,7.29,10.451,7.29,10.451h0c0,0,4.85-5.543,5.754-7.789
				c0.747-1.857,1.032-7.94,1.032-7.94l0.32,0.05l-0.42,7.119l7.158-5.886l0.124,0.396c0,0-5.793,4.598-7.362,6.483
				c-1.21,1.455-3.487,5.521-4.636,7.625c-0.46,0.842-0.686,1.791-0.656,2.75l0.577,20.163h-3.367l0.56-19.387
				c0.039-1.26-0.594-2.505-1.235-3.59C196.902,340.54,193.677,335.227,191.893,333.316z"/>
		</g>
		<g>
			<path style="fill:#F5F5F5;" d="M103.203,277.333c2.15-0.394,6.271,3.587,8.295,2.761c1.556-0.635,1.843-4.832,3.069-5.981
				c1.677-1.573,7.741-1.472,8.433-3.664c1.428-4.521-5.298-15.029-9.898-16.178c-3.301-0.824-8.536,5.721-11.726,6.905
				c-2.959,1.098-10.329-0.118-12.423,2.243c-2.422,2.732-1.959,11.523,0,14.604c1.261,1.983,6.208,4.453,8.512,3.988
				C99.279,281.644,101.383,277.667,103.203,277.333z"/>
			<path style="fill:#E0E0E0;" d="M99.123,271.48c-0.845-0.906-3.669-3.014-3.669-3.014l0.104-0.332l4.016,2.714l1.63-4.805
				l0.268,0.222c0,0-1.308,3.557-1.105,4.811c0.439,2.712,6.109,8.757,6.109,8.757h0c0,0,4.064-4.645,4.822-6.526
				c0.626-1.556,0.864-6.653,0.864-6.653l0.268,0.042l-0.352,5.965l5.998-4.932l0.104,0.332c0,0-4.854,3.853-6.169,5.433
				c-1.014,1.219-2.922,4.626-3.885,6.389c-0.385,0.706-0.575,1.501-0.55,2.305l0.484,16.895h-2.821l0.47-16.245
				c0.033-1.056-0.498-2.099-1.035-3.008C103.321,277.534,100.618,273.082,99.123,271.48z"/>
		</g>
		<g>
			<path style="fill:#E6E6E6;" d="M319.865,232.204c0,0-9.952-1.158-10.977-3.882c-0.831-2.209,4.053-5.942,4.618-8.233
				c0.437-1.771-0.743-5.553-0.201-7.296c0.48-1.544,3.451-3.646,3.815-5.221c0.172-0.745-0.72-2.27-0.536-3.012
				c0.419-1.689,2.565-5.764,4.284-5.488c2.711,0.434,3.867,7.497,3.963,10.241c0.036,1.033-1.322,2.921-1.219,3.949
				c0.185,1.84,3.612,4.644,3.547,6.492c-0.027,0.775-1.651,1.836-1.673,2.61c-0.041,1.4,3.107,3.533,2.744,4.886
				C327.601,229.599,319.865,232.204,319.865,232.204z"/>
			<path style="fill:#E0E0E0;" d="M320.262,217.089l-0.284-11.145l-0.402,0.023l-0.469,18.161c0,0-3.379,1.033-4.543,1.182
				c-0.614,0.079-2.477,0-2.477,0v0.223c0,0,1.959,0.14,2.61,0.089c0.323-0.025,1.272-0.245,1.272-0.245l-1.227,1.183l0.139,0.156
				l1.59-1.422l2.622-0.648l-0.435,16.831h2.225l-0.614-24.07L320.262,217.089z"/>
		</g>
		<g>
			<path style="fill:#E6E6E6;" d="M405.778,282.278c0,0-9.952-1.158-10.977-3.882c-0.831-2.209,4.053-5.941,4.618-8.233
				c0.437-1.772-0.743-5.553-0.201-7.296c0.48-1.543,3.451-3.646,3.815-5.221c0.172-0.745-0.72-2.27-0.535-3.012
				c0.419-1.689,2.565-5.764,4.284-5.489c2.711,0.434,3.867,7.497,3.963,10.241c0.036,1.033-1.322,2.921-1.219,3.949
				c0.185,1.84,3.612,4.644,3.548,6.493c-0.027,0.775-1.651,1.836-1.673,2.61c-0.041,1.4,3.107,3.533,2.744,4.886
				C413.515,279.673,405.778,282.278,405.778,282.278z"/>
			<path style="fill:#E0E0E0;" d="M406.175,267.163l-0.284-11.145l-0.402,0.023l-0.469,18.161c0,0-3.379,1.033-4.543,1.182
				c-0.614,0.079-2.477,0-2.477,0v0.223c0,0,1.959,0.14,2.61,0.089c0.323-0.025,1.272-0.246,1.272-0.246l-1.227,1.183l0.139,0.156
				l1.59-1.422l2.622-0.648l-0.435,16.831h2.225l-0.614-24.07L406.175,267.163z"/>
		</g>
		<g>
			<path style="fill:#F5F5F5;" d="M165.587,284.22c0,0-8.199-0.878-9.044-2.944c-0.685-1.675,3.339-4.505,3.805-6.242
				c0.36-1.343-0.612-4.211-0.165-5.532c0.396-1.17,2.843-2.764,3.143-3.959c0.142-0.565-0.593-1.721-0.441-2.284
				c0.346-1.281,2.113-4.37,3.529-4.162c2.233,0.329,3.186,5.685,3.265,7.765c0.03,0.783-1.09,2.215-1.004,2.994
				c0.153,1.395,2.976,3.521,2.923,4.923c-0.022,0.587-1.36,1.392-1.379,1.979c-0.034,1.062,2.56,2.679,2.261,3.705
				C171.961,282.244,165.587,284.22,165.587,284.22z"/>
			<path style="fill:#E0E0E0;" d="M165.914,272.758l-0.234-8.451l-0.332,0.017l-0.386,13.77c0,0-2.784,0.784-3.743,0.897
				c-0.506,0.06-2.04,0-2.04,0v0.169c0,0,1.614,0.106,2.151,0.068c0.266-0.019,1.048-0.186,1.048-0.186l-1.011,0.897l0.115,0.118
				l1.31-1.079l2.16-0.491l-0.358,12.762h1.833l-0.506-18.251L165.914,272.758z"/>
		</g>
		<g>
			<path style="fill:#EBEBEB;" d="M158.394,221.767c0,0-8.199-0.878-9.044-2.944c-0.685-1.675,3.339-4.505,3.805-6.243
				c0.36-1.343-0.612-4.211-0.165-5.532c0.396-1.17,2.843-2.765,3.143-3.959c0.142-0.565-0.593-1.721-0.441-2.284
				c0.346-1.281,2.113-4.37,3.529-4.162c2.233,0.329,3.186,5.685,3.265,7.765c0.03,0.783-1.09,2.215-1.004,2.995
				c0.153,1.395,2.976,3.521,2.923,4.923c-0.022,0.587-1.36,1.392-1.379,1.979c-0.034,1.062,2.56,2.679,2.261,3.705
				C164.768,219.792,158.394,221.767,158.394,221.767z"/>
			<path style="fill:#E0E0E0;" d="M158.721,210.306l-0.234-8.451l-0.331,0.017l-0.386,13.771c0,0-2.784,0.784-3.743,0.897
				c-0.506,0.06-2.04,0-2.04,0v0.169c0,0,1.614,0.107,2.151,0.068c0.266-0.019,1.048-0.186,1.048-0.186l-1.011,0.897l0.115,0.118
				l1.31-1.078l2.16-0.492l-0.358,12.762h1.833l-0.506-18.251L158.721,210.306z"/>
		</g>
		<g>
			<path style="fill:#F5F5F5;" d="M201.218,255.906c0,0-9.952-1.158-10.977-3.882c-0.831-2.209,4.053-5.942,4.618-8.233
				c0.437-1.772-0.743-5.554-0.201-7.296c0.48-1.543,3.451-3.646,3.815-5.221c0.173-0.745-0.72-2.27-0.535-3.012
				c0.419-1.689,2.565-5.764,4.284-5.488c2.711,0.434,3.867,7.497,3.963,10.241c0.036,1.033-1.322,2.921-1.219,3.949
				c0.185,1.84,3.612,4.644,3.548,6.493c-0.027,0.775-1.651,1.836-1.673,2.61c-0.041,1.4,3.107,3.533,2.744,4.886
				C208.955,253.301,201.218,255.906,201.218,255.906z"/>
			<path style="fill:#E0E0E0;" d="M201.615,240.791l-0.284-11.145l-0.402,0.023l-0.469,18.161c0,0-3.379,1.033-4.543,1.182
				c-0.614,0.079-2.477,0-2.477,0v0.223c0,0,1.959,0.14,2.61,0.089c0.323-0.025,1.272-0.245,1.272-0.245l-1.227,1.183l0.139,0.156
				l1.59-1.422l2.622-0.648l-0.435,16.831h2.225l-0.614-24.069L201.615,240.791z"/>
		</g>
	</g>
</g>
<g id="Background_Simple" style="display:none;">
	<g style="display:inline;">
		<path style="fill:#407BFF;" d="M218.011,140.937c-19.779-4.045-40.432-0.678-59.621,5.592
			c-27.272,8.912-53.631,24.729-68.026,49.547c-14.395,24.819-13.593,59.696,7.198,79.468
			c26.634,25.329,71.631,17.186,102.432,37.241c11.733,7.639,20.577,18.877,30.869,28.369
			c30.441,28.075,74.898,40.124,115.35,31.262c26.493-5.804,51.951-21.159,64.589-45.156c13.135-24.941,10.538-56.427-3.13-81.079
			c-13.669-24.652-37.25-42.815-63.19-53.846c-24.025-10.216-48.259-12.117-73.528-16.662
			c-10.197-1.834-13.968-13.531-21.763-20.016C240.273,148.237,229.352,143.256,218.011,140.937z"/>
		<path style="opacity:0.9;fill:#FFFFFF;" d="M218.011,140.937c-19.779-4.045-40.432-0.678-59.621,5.592
			c-27.272,8.912-53.631,24.729-68.026,49.547c-14.395,24.819-13.593,59.696,7.198,79.468
			c26.634,25.329,71.631,17.186,102.432,37.241c11.733,7.639,20.577,18.877,30.869,28.369
			c30.441,28.075,74.898,40.124,115.35,31.262c26.493-5.804,51.951-21.159,64.589-45.156c13.135-24.941,10.538-56.427-3.13-81.079
			c-13.669-24.652-37.25-42.815-63.19-53.846c-24.025-10.216-48.259-12.117-73.528-16.662
			c-10.197-1.834-13.968-13.531-21.763-20.016C240.273,148.237,229.352,143.256,218.011,140.937z"/>
	</g>
</g>
<g id="Shadow">
	<ellipse id="_x3C_Path_x3E__359_" style="fill:#F5F5F5;" cx="250" cy="415.693" rx="193.889" ry="11.323"/>
</g>
<g id="Character_1">
	<g>
		<g>
			<g>
				<g>
					<g>
						<path style="fill:#F7978D;" d="M126.612,386.799l-14.318,13.594c-0.536-0.225-4.448-4.735-4.448-4.735l12.434-12.875
							L126.612,386.799z"/>
						<g>
							<path style="fill:#407BFF;" d="M113.297,401.665c-0.041-0.066-0.043-0.15-0.004-0.214c0.044-0.061,0.119-0.088,0.192-0.069
								c0.124,0.036,3.034,0.863,3.715,2.03c0.139,0.213,0.189,0.474,0.138,0.719c-0.03,0.292-0.236,0.523-0.512,0.575
								c-0.498,0.108-1.266-0.477-1.964-1.192C114.288,402.948,113.764,402.329,113.297,401.665z M116.703,403.322
								c-0.836-0.654-1.78-1.137-2.778-1.421c0.881,1.156,2.274,2.544,2.857,2.448c0.076-0.02,0.177-0.065,0.235-0.321
								c0.03-0.148,0-0.304-0.082-0.433c-0.067-0.101-0.143-0.196-0.227-0.283L116.703,403.322z"/>
							<path style="fill:#407BFF;" d="M113.286,401.539c-0.004-0.067,0.029-0.13,0.085-0.16c0.067-0.052,1.561-1.38,2.792-1.254
								c0.351,0.049,0.674,0.245,0.894,0.542c0.323,0.395,0.24,0.675,0.145,0.855c-0.462,0.725-2.858,0.593-3.792,0.225
								c-0.02-0.012-0.069-0.042-0.069-0.042L113.286,401.539z M116.127,400.513c-0.845,0.061-1.64,0.397-2.274,0.961
								c1.052,0.268,2.837,0.254,3.076-0.196c0.021-0.04,0.089-0.144-0.113-0.399l-0.098-0.06
								C116.561,400.644,116.35,400.535,116.127,400.513z"/>
							<path style="fill:#263238;" d="M113.388,399.802l-4.5-4.986c-0.215-0.235-0.553-0.285-0.807-0.119l-5.249,3.059
								c-0.506,0.345-0.196,1.723-0.148,1.775c2.77,3.717,8.716,10.596,10.945,12.98c2.229,2.384,4.685,0.49,3.97-0.685
								c-3.208-5.266-3.537-8.15-3.686-10.713C113.902,400.63,113.714,400.161,113.388,399.802z"/>
						</g>
						<g style="opacity:0.2;">
							<polygon points="115.195,387.92 120.281,382.783 126.612,386.799 120.272,392.702 							"/>
						</g>
					</g>
					<g>
						<g>
							<path style="fill:#263238;" d="M120.857,317.553c-0.127,1.807-0.152,2.385,0.035,4.203
								c0.761,7.411,18.74,39.371,17.224,40.366c-5.834,3.83-12.088,10.548-19.936,22.725c2.106,2.495,3.903,4.163,6.038,7.187
								c0,0,22.714-17.387,28.11-24.798c3.327-4.569-8.906-55.504-12.594-58.74C137.665,306.679,121.816,303.892,120.857,317.553z"
								/>
						</g>
					</g>
					<g style="opacity:0.2;enable-background:new    ;">
						<g>
							<path d="M120.857,317.553c-0.127,1.807-0.152,2.385,0.035,4.203c0.761,7.411,18.74,39.371,17.224,40.366
								c-5.834,3.83-12.088,10.548-19.936,22.725c2.106,2.495,3.903,4.163,6.038,7.187c0,0,22.714-17.387,28.11-24.798
								c3.327-4.569-8.906-55.504-12.594-58.74C137.665,306.679,121.816,303.892,120.857,317.553z"/>
						</g>
					</g>
					<g>
						<path style="fill:#263238;" d="M127.396,390.279c0.043,0.052-3.824,3.048-3.824,3.048l-7.687-8.786l3.14-3.242
							L127.396,390.279z"/>
					</g>
					<path style="opacity:0.6;fill:#FFFFFF;" d="M127.396,390.279c0.043,0.052-3.824,3.048-3.824,3.048l-7.687-8.786l3.14-3.242
						L127.396,390.279z"/>
				</g>
				<g>
					<path style="fill:#263238;" d="M143.842,304.262l2.301,0.97l-16.603,27.613c0,0-8.953,3.554-13.19-5.701
						c-7.619-16.643,4.609-32.132,4.609-32.132S135.492,300.435,143.842,304.262z"/>
				</g>
				<g>
					<g>
						<path style="fill:#F7978D;" d="M75.687,389.193l-16.743,10.463c-0.48-0.328-3.413-5.528-3.413-5.528l14.754-10.134
							L75.687,389.193z"/>
						<g>
							<path style="fill:#407BFF;" d="M59.672,401.102c-0.027-0.073-0.012-0.155,0.039-0.21c0.055-0.051,0.134-0.062,0.202-0.029
								c0.114,0.06,2.801,1.451,3.235,2.73c0.094,0.237,0.091,0.502-0.008,0.732c-0.088,0.28-0.336,0.466-0.617,0.461
								c-0.51,0.006-1.145-0.72-1.687-1.56C60.387,402.557,59.997,401.846,59.672,401.102z M62.678,403.405
								c-0.689-0.808-1.517-1.469-2.438-1.947c0.632,1.309,1.721,2.947,2.311,2.969c0.078-0.005,0.186-0.028,0.294-0.267
								c0.059-0.139,0.061-0.298,0.006-0.441c-0.045-0.113-0.101-0.221-0.166-0.322L62.678,403.405z"/>
							<path style="fill:#407BFF;" d="M59.686,400.977c0.009-0.067,0.054-0.121,0.115-0.14c0.076-0.038,1.805-1.04,2.986-0.671
								c0.334,0.118,0.611,0.375,0.768,0.71c0.238,0.451,0.1,0.709-0.029,0.866c-0.597,0.618-2.918,0.011-3.76-0.537
								c-0.017-0.016-0.059-0.055-0.059-0.055L59.686,400.977z M62.674,400.538c-0.84-0.109-1.687,0.061-2.42,0.487
								c0.977,0.473,2.729,0.816,3.053,0.422c0.029-0.035,0.116-0.123-0.031-0.414l-0.084-0.078
								C63.074,400.754,62.889,400.604,62.674,400.538z"/>
							<path style="fill:#263238;" d="M60.132,399.295l-3.414-5.784c-0.164-0.274-0.485-0.39-0.766-0.278l-5.754,1.949
								c-0.564,0.237-0.536,1.649-0.499,1.71c1.972,4.195,6.425,12.122,8.133,14.904c1.708,2.781,4.493,1.415,4.027,0.122
								c-2.092-5.8-1.839-8.692-1.473-11.233C60.471,400.208,60.381,399.711,60.132,399.295z"/>
						</g>
						<g style="opacity:0.2;">
							<polygon points="64.275,388.012 70.285,383.994 75.687,389.193 68.295,393.711 							"/>
						</g>
					</g>
					<g>
						<g>
							<path style="fill:#263238;" d="M116.572,312.348c-0.817,1.617-1.064,2.14-1.596,3.888
								c-2.169,7.127-20.828,44.864-22.44,45.693c-8.956,4.605-25.471,23.08-25.471,23.08c0.976,3.116,4.992,7.953,4.992,7.953
								s22.844-15.095,30.372-20.327c12.981-9.021,38.644-55.4,36.496-59.812C137.72,310.349,122.747,300.126,116.572,312.348z"/>
						</g>
					</g>
					<g>
						<g>
							<path style="fill:#263238;" d="M75.684,392.078c0.037,0.057-4.12,2.634-4.12,2.634l-6.732-9.537l3.46-2.898L75.684,392.078z"
								/>
						</g>
						<path style="opacity:0.6;fill:#FFFFFF;" d="M75.684,392.078c0.037,0.057-4.12,2.634-4.12,2.634l-6.732-9.537l3.46-2.898
							L75.684,392.078z"/>
					</g>
				</g>
			</g>
			<g>
				<g>
					<g>
						<g>
							<g>
								<path style="fill:#F7978D;" d="M199.832,270.948c0.075-0.852,2.884-4.814,3.469-4.596c0.585,0.219,1.998,2.604,1.924,2.984
									c-0.136,0.7-2.002,5.98-5.431,5.95C198.477,275.276,199.832,270.948,199.832,270.948z"/>
								<path style="fill:#F7978D;" d="M203.301,266.353c0,0,2.13-1.284,2.919-0.999c0.789,0.285,1.924,1.552,1.924,1.552
									l-2.919,2.432L203.301,266.353z"/>
							</g>
							<polygon style="fill:#F7978D;" points="196.523,271.231 199.832,270.948 199.794,275.287 193.452,275.232 							"/>
						</g>
						<g>
							<path style="fill:#407BFF;" d="M198.841,270.677l0.018,5.718l-21.042,1c-0.79-0.123-18.406-2.136-19.886-2.34l-0.943-11.767
								c0.813,0.273,10.911,3.493,20.775,6.133C180.068,269.466,197.782,270.884,198.841,270.677z"/>
						</g>
						<g style="opacity:0.1;enable-background:new    ;">
							<path d="M198.841,270.677l0.018,5.718l-21.042,1c-0.79-0.123-18.406-2.136-19.886-2.34l-0.943-11.767
								c0.813,0.273,10.911,3.493,20.775,6.133C180.068,269.466,197.782,270.884,198.841,270.677z"/>
						</g>
						<path style="opacity:0.2;enable-background:new    ;" d="M171.423,276.81c-3.733-0.523-11.089-1.423-13.492-1.755l-0.409-5.1
							C159.962,272.447,161.215,274.029,171.423,276.81z"/>
					</g>
					<g id="Character--inject-2_1_">
						<g>
							<path style="fill:#407BFF;" d="M135.426,255.501c0.008-0.021,2.513-3.301,6.576-2.146l0.058,0.033
								c1.754,0.674,3.923,1.574,5.971,2.6c3.924,1.926,12.24,7.816,13.313,8.807c1.557,1.344,1.985,3.655,1.546,5.664
								c-1.471,6.446-7.571,21.99-18.687,38l-23.243-13.447C120.959,295.012,128.593,288.907,135.426,255.501z"/>
						</g>
						<path style="fill:#F7978D;" d="M159.423,255.843c-0.277,0.352-0.541,0.709-0.775,1.087c-0.124,0.17-0.227,0.342-0.338,0.518
							c-0.325,0.523-0.592,0.925-0.792,1.256c-0.424,0.71-0.514,1.114-0.082,1.833c0.823,1.37,1.125,3.041,0.597,4.549
							c-0.516,1.475-1.616,2.723-3.953,1.814c-5.002-2.299-6.247-7.897-6.247-7.897c3.801-1.327,6.163-8.723,7.127-12.948
							l1.889,4.143L159.423,255.843z"/>
						<path style="opacity:0.2;enable-background:new    ;" d="M158.648,256.929c-0.124,0.17-0.227,0.342-0.338,0.518
							c-0.325,0.523-0.592,0.925-0.792,1.256c-1.399-1.165-2.615-3.779-2.064-5.487c0.173-0.579,0.419-1.135,0.723-1.66
							L158.648,256.929z"/>
						<path style="fill:#F7978D;" d="M159.832,236.537c3.439-2.356,8.137-1.479,10.493,1.96c3.564,4.936-0.03,12.689-3.653,16.47
							c-1.026,1.112-2.365,1.885-3.841,2.216c-4.016,0.903-8.003-1.62-8.906-5.635c-0.971-4.076,0.789-6.937,3.372-12.057
							C157.869,238.302,158.743,237.283,159.832,236.537z"/>
						<g>
							<path style="fill:#263238;" d="M164.982,255.164c0,0-1.704-0.369-5.953-2.581c1.198-1.275,2.469-1.29,4.635-0.131
								C165.829,253.611,164.982,255.164,164.982,255.164z"/>
							<path style="fill:#FAFAFA;" d="M164.772,255.095c0.096-0.401-0.028-0.823-0.325-1.11c-1.256-0.652-2.573-1.178-3.932-1.571
								c-0.443-0.174-0.947-0.078-1.294,0.248C160.993,253.641,162.851,254.455,164.772,255.095z"/>
							<path style="fill:#FAFAFA;" d="M164.286,254.049c-1.263-0.276-2.476-0.745-3.596-1.39c-0.278-0.236-0.485-0.544-0.6-0.89
								c0.913-0.413,2.022-0.171,3.576,0.653c0.604,0.273,1.09,0.753,1.37,1.354C164.8,253.901,164.548,253.992,164.286,254.049z"/>
						</g>
						<path style="fill:#FF5652;" d="M165.642,252.061c0.618,0.469,1.412,0.643,2.169,0.473c-0.411-1.493-0.617-3.034-0.614-4.582
							L165.642,252.061z"/>
						<path style="fill:#263238;" d="M157.691,233.275c-1.469,0.346-2.937,0.691-4.406,1.037c-0.835,0.197-1.684,0.399-2.429,0.826
							c-0.745,0.427-1.383,1.119-1.539,1.963c-0.222,1.211,0.621,2.418,1.704,3.002c-0.688,0.715-1.118,1.494-1.068,2.485
							c0.05,0.991,0.526,1.953,1.283,2.595c-0.317,0.713-0.2,1.369,0.113,2.083c0.314,0.714,2.271,1.383,2.177,3.731
							c0.636-1.585,1.291-3.277,2.226-4.706c0.935-1.429,3.094-4.984,6.079-4.239c0.658,0.164,3.915-5.223,2.075-5.923
							C162.786,235.702,158.177,233.16,157.691,233.275z"/>
						<path style="fill:#263238;" d="M171.749,242.298c0.032-1.841-0.234-4.686-0.786-6.443c-0.262-0.835-0.604-1.675-1.218-2.299
							c-0.614-0.625-1.596-1.05-2.428-0.776c-0.42-0.697-0.872-1.388-1.48-1.929c-0.608-0.541-1.396-0.921-2.209-0.889
							c-0.813,0.032-1.628,0.377-1.869,1.154c-1.165-0.206-2.351-0.382-3.529-0.262c-1.177,0.12-2.36,0.565-3.163,1.434
							c-0.803,0.869-1.151,2.205-0.666,3.284c1.544-1.08,3.678-1.616,5.487-1.089c1.809,0.527,3.35,2.907,4.072,4.647
							c2.091-0.382,4.191,0.62,5.209,2.486c0.429-0.252,1.12-0.411,1.557-0.173C171.163,241.682,171.729,241.801,171.749,242.298z"
							/>
						<path style="fill:#F7978D;" d="M156.433,241.365c1.3,0.333,1.589,1.669,1.398,3.33c-0.29,2.098-1.702,3.552-3.038,2.705
							c-0.98-0.527-1.277-2.281-1.138-3.516C153.825,242.328,155.043,241.01,156.433,241.365z"/>
						<path style="fill:#263238;" d="M164.936,245.695c0.256,0.165,0.253,0.663,0.037,1.026c-0.216,0.363-0.613,0.556-0.873,0.398
							c-0.259-0.158-0.242-0.601-0.04-1.019C164.295,245.697,164.679,245.53,164.936,245.695z"/>
						<path style="fill:#263238;" d="M169.724,247.684c0.26,0.158,0.291,0.61,0.065,1.018c-0.225,0.408-0.62,0.618-0.881,0.46
							c-0.26-0.158-0.288-0.616-0.062-1.025C169.069,247.735,169.464,247.525,169.724,247.684z"/>
						<path style="fill:#263238;" d="M169.828,245.415c0.083,0.036,0.145,0.109,0.166,0.198c0.097,0.702,0.509,1.321,1.12,1.68
							c0.134,0.059,0.195,0.216,0.136,0.35c-0.002,0.004-0.004,0.008-0.006,0.012c-0.067,0.133-0.226,0.19-0.362,0.13l0,0
							c-0.775-0.431-1.302-1.201-1.425-2.079c-0.021-0.149,0.079-0.288,0.227-0.315
							C169.733,245.389,169.782,245.397,169.828,245.415z"/>
						<path style="fill:#263238;" d="M164.18,243.933c0.077-0.049,0.172-0.058,0.257-0.026c0.635,0.315,1.379,0.322,2.019,0.019
							c0.124-0.078,0.288-0.04,0.366,0.084c0.002,0.004,0.005,0.008,0.007,0.012c0.072,0.13,0.03,0.294-0.096,0.373l0,0
							c-0.792,0.398-1.725,0.402-2.52,0.009c-0.135-0.066-0.194-0.227-0.133-0.365C164.105,243.997,164.139,243.96,164.18,243.933z"
							/>
					</g>
					<rect x="195.28" y="242.624" style="fill:#407BFF;" width="160.691" height="171.276"/>
					<rect x="195.28" y="242.626" style="opacity:0.6;fill:#FFFFFF;" width="160.69" height="171.274"/>
					<rect x="314.133" y="242.626" style="opacity:0.1;" width="41.837" height="171.274"/>
					<g>
						<g>
							<path style="fill:#F7978D;" d="M193.479,269.301c0.043-0.87,2.751-5.015,3.355-4.815c0.604,0.2,2.135,2.575,2.075,2.965
								c-0.111,0.718-1.807,6.168-5.3,6.27C192.267,273.761,193.479,269.301,193.479,269.301z"/>
							<path style="fill:#F7978D;" d="M196.834,264.487c0,0,2.12-1.391,2.934-1.131c0.814,0.26,2.02,1.506,2.02,1.506l-2.879,2.589
								L196.834,264.487z"/>
						</g>
						<polygon style="fill:#F7978D;" points="190.12,269.717 193.479,269.301 193.609,273.721 187.148,273.911 						"/>
					</g>
					<g>
						<g>
							<path style="fill:#407BFF;" d="M143.619,253.967c-7.749-3.813-11.409,5.029-7.25,9.841
								c1.619,1.874,13.911,8.165,25.614,9.967c9.778,1.506,26.391,1.567,29.487,1.441l-0.197-6.711l-28.469-3.055L143.619,253.967z
								"/>
						</g>
					</g>
					<g style="opacity:0.1;">
						<g>
							<path style="fill:#FFFFFF;" d="M143.619,253.967c-7.749-3.813-11.409,5.029-7.25,9.841
								c1.619,1.874,13.911,8.165,25.614,9.967c9.778,1.506,26.391,1.567,29.487,1.441l-0.197-6.711l-28.469-3.055L143.619,253.967z
								"/>
						</g>
					</g>
				</g>
			</g>
		</g>
		<g>
			<path style="fill:#407BFF;" d="M123.638,412.97c-1.672,0.139,51.327,0,51.327,0l-0.232-8.051l-6.75,4.355v-3.552l-10.892,4.258
				v-3.799C157.091,406.181,147.967,410.94,123.638,412.97z"/>
			<path style="opacity:0.6;fill:#FFFFFF;" d="M123.638,412.97c-1.672,0.139,51.327,0,51.327,0l-0.232-8.051l-6.75,4.355v-3.552
				l-10.892,4.258v-3.799C157.091,406.181,147.967,410.94,123.638,412.97z"/>
		</g>
	</g>
</g>
<g id="Character_2">
	<g>
		<g>
			<g>
				<g>
					<g>
						<path style="fill:#F7978D;" d="M196.283,397.936l-18.469,7.786c-0.428-0.406-2.529-6.091-2.529-6.091l16.422-7.777
							L196.283,397.936z"/>
						<g>
							<path style="fill:#407BFF;" d="M178.311,407.289c-0.015-0.078,0.013-0.157,0.073-0.204c0.063-0.042,0.144-0.041,0.207,0.004
								c0.105,0.078,2.573,1.906,2.802,3.258c0.056,0.253,0.01,0.518-0.126,0.733c-0.133,0.267-0.411,0.413-0.692,0.363
								c-0.512-0.076-1.031-0.907-1.439-1.836C178.792,408.863,178.516,408.087,178.311,407.289z M180.952,410.082
								c-0.56-0.921-1.283-1.717-2.13-2.345c0.423,1.413,1.249,3.231,1.837,3.349c0.079,0.008,0.191,0.002,0.338-0.221
								c0.081-0.129,0.109-0.289,0.077-0.441c-0.027-0.12-0.065-0.237-0.114-0.35L180.952,410.082z"/>
							<path style="fill:#407BFF;" d="M178.345,407.165c0.02-0.065,0.074-0.113,0.138-0.122c0.082-0.026,1.977-0.752,3.102-0.191
								c0.316,0.173,0.552,0.474,0.655,0.835c0.166,0.49-0.014,0.727-0.169,0.864c-0.698,0.523-2.927-0.46-3.682-1.145
								c-0.015-0.018-0.05-0.064-0.05-0.064L178.345,407.165z M181.411,407.208c-0.825-0.245-1.7-0.211-2.504,0.098
								c0.903,0.632,2.604,1.258,2.992,0.915c0.035-0.03,0.136-0.105,0.036-0.42l-0.072-0.092
								C181.777,407.488,181.615,407.309,181.411,407.208z"/>
							<path style="fill:#263238;" d="M179.064,405.552l-2.489-6.348c-0.12-0.301-0.423-0.469-0.723-0.402l-6.082,1.026
								c-0.604,0.147-0.803,1.567-0.776,1.633c1.3,4.523,4.485,13.186,5.748,16.249c1.264,3.063,4.275,2.143,4.017,0.771
								c-1.162-6.151-0.441-9.008,0.335-11.496C179.256,406.522,179.245,406.009,179.064,405.552z"/>
						</g>
						<g style="opacity:0.2;">
							<polygon points="185.036,394.912 191.707,391.854 196.283,397.936 188.146,401.272 							"/>
						</g>
					</g>
					<g>
						<g>
							<path style="fill:#407BFF;" d="M220.213,327.433c-0.767,1.671-0.998,2.211-1.472,4.005
								c-1.931,7.312-0.898,46.775-2.694,47.177c-6.913,1.549-15.26,5.691-27.075,14.447c1.108,3.124,2.217,5.352,3.162,8.989
								c0,0,27.802-8.383,35.583-13.49c4.797-3.149,16.017-58.578,13.672-62.972C240.073,323.123,226.016,314.799,220.213,327.433z"
								/>
						</g>
					</g>
					<g style="opacity:0.2;">
						<g>
							<path d="M220.213,327.433c-0.767,1.671-0.998,2.211-1.472,4.005c-1.931,7.312-0.898,46.775-2.694,47.177
								c-6.913,1.549-15.26,5.691-27.075,14.447c1.108,3.124,2.217,5.352,3.162,8.989c0,0,27.802-8.383,35.583-13.49
								c4.797-3.149,16.017-58.578,13.672-62.972C240.073,323.123,226.016,314.799,220.213,327.433z"/>
						</g>
					</g>
					<g>
						<path style="fill:#407BFF;" d="M246.054,316.716l2.371,0.896c-1.883,13.059-3.149,17.943-3.149,17.943l-2.752,7.294l0,0
							c0,0-20.192,4.224-24.841-5.004c-8.36-16.596,4.806-29.646,4.806-29.646S237.438,313.151,246.054,316.716z"/>
					</g>
					<g>
						<path style="fill:#F7978D;" d="M273.805,397.923l-4.106,19.012c-0.636,0.197-6.328,0.484-6.328,0.484l2.066-18.445
							L273.805,397.923z"/>
						<g>
							<path style="fill:#407BFF;" d="M271.494,416.532c-0.068-0.036-0.106-0.111-0.098-0.19c0.014-0.079,0.073-0.146,0.149-0.17
								c0.132-0.038,3.221-0.937,4.374-0.273c0.225,0.113,0.387,0.319,0.448,0.568c0.102,0.279,0.012,0.603-0.224,0.805
								c-0.418,0.378-1.396,0.285-2.366,0.038C272.99,417.125,272.225,416.865,271.494,416.532z M275.414,416.099
								c-1.072-0.116-2.169-0.017-3.228,0.291c1.336,0.541,3.255,1.001,3.758,0.586c0.062-0.061,0.137-0.158,0.077-0.42
								c-0.038-0.149-0.135-0.273-0.269-0.343c-0.107-0.053-0.221-0.096-0.337-0.126L275.414,416.099z"/>
							<path style="fill:#407BFF;" d="M271.427,416.425c-0.034-0.058-0.031-0.132,0.008-0.192c0.039-0.084,0.848-2.12,2.055-2.702
								c0.35-0.154,0.739-0.16,1.077-0.017c0.477,0.172,0.523,0.47,0.514,0.686c-0.11,0.911-2.409,2.145-3.446,2.341
								c-0.024,0-0.083,0.001-0.083,0.001L271.427,416.425z M273.629,413.901c-0.763,0.531-1.358,1.281-1.7,2.145
								c1.103-0.353,2.766-1.372,2.79-1.911c0.002-0.048,0.02-0.18-0.283-0.295l-0.118,0.002
								C274.094,413.774,273.848,413.795,273.629,413.901z"/>
							<path style="fill:#263238;" d="M270.752,414.809l-7.187-2.185c-0.305-0.09-0.644,0.056-0.807,0.348l-3.552,5.709
								c-0.32,0.595,0.581,1.658,0.649,1.677c4.239,1.775,13.619,4.843,16.761,5.727c3.142,0.884,4.599-2.203,3.409-2.855
								c-5.336-2.919-6.923-5.323-8.199-7.54C271.6,415.261,271.216,414.946,270.752,414.809z"/>
						</g>
						<g style="opacity:0.2;">
							<polygon points="264.759,405.018 265.436,398.975 273.805,397.923 272.061,406.181 							"/>
						</g>
					</g>
					<path style="fill:#407BFF;" d="M217.918,333.709c10.186,13.973,49.199,28.776,49.199,28.776s-2.358,16.931-2.358,37.908
						c3.829,0.161,9.008,1.724,9.008,1.724s9.485-37.949,9.485-46.514c0-8.121-50.394-45.098-62.446-38.416
						C217.456,319.045,213.173,327.201,217.918,333.709z"/>
					<g>
						<g>
							<g>
								<path style="fill:#407BFF;" d="M276.688,398.237c0.071,0.012-1.521,5.296-1.521,5.296l-13.293-2.157l0.791-4.957
									L276.688,398.237z"/>
							</g>
						</g>
					</g>
					<g>
						<path style="fill:#407BFF;" d="M195.781,401.522c0.022,0.065-4.724,1.526-4.724,1.526l-4.156-11.099l4.144-1.955
							L195.781,401.522z"/>
					</g>
					<path style="opacity:0.2;" d="M276.688,398.237c0.071,0.012-1.521,5.296-1.521,5.296l-13.293-2.157l0.791-4.957
						L276.688,398.237z"/>
					<path style="opacity:0.2;" d="M195.781,401.522c0.022,0.065-4.724,1.526-4.724,1.526l-4.156-11.099l4.144-1.955
						L195.781,401.522z"/>
				</g>
				<g>
					<g>
						<g id="Character--inject-2_2_">
							<path style="fill:#407BFF;" d="M247.332,319.95l-25.781-13.277c1.079-2.587,2.746-6.193,7.642-16.697
								c3.25-7.282,6.024-14.766,8.304-22.407c0.007-0.022,0.014-0.043,0.021-0.065c0.657-1.961,2.78-3.018,4.741-2.361l0.06,0.031
								c1.805,0.618,4.04,1.448,6.155,2.412c4.054,1.805,8.003,3.839,11.827,6.091c1.24,0.815,2.426,1.707,3.553,2.672
								c1.63,1.305,2.415,3.397,2.046,5.452C264.652,288.395,261.996,295.712,247.332,319.95z"/>
							<path style="opacity:0.8;fill:#FFFFFF;" d="M247.332,319.95l-24.88-12.813c1.087-2.583,1.614-2.602,15.042-39.569
								c0.007-0.022,0.014-0.043,0.021-0.065c0.667-1.956,2.745-3.036,4.641-2.412l0.058,0.03c1.745,0.587,3.904,1.378,5.945,2.303
								c3.912,1.732,7.719,3.693,11.402,5.872c1.192,0.79,2.332,1.659,3.413,2.6c1.565,1.271,2.297,3.336,1.908,5.38
								C263.573,287.84,261.934,295.68,247.332,319.95z"/>
							<path style="fill:#263238;" d="M247.35,324.644c0.094-0.581-27.995-11.169-27.995-11.169l1.426-3.386l27.711,11.941
								L247.35,324.644z"/>
							<path style="opacity:0.7;fill:#FFFFFF;" d="M247.35,324.644c0.094-0.581-27.995-11.169-27.995-11.169l1.426-3.386
								l27.711,11.941L247.35,324.644z"/>
							<path style="fill:#263238;" d="M248.301,266.974c-2.226-1.011-4.587-1.891-6.492-2.543l-0.06-0.031
								c-0.037-0.013-0.075-0.025-0.112-0.037c-2.075-0.643-4.277,0.518-4.92,2.593c-1.701,5.511-4.814,15.189-8.747,23.628
								c-7.486,6.857-18.179,3.995-24.38,10.081l-5.664,4.678c0,0,0.576,0.146,1.831,0.462c8.984,2.268,17.274,6.725,24.118,12.971
								v0c24.12-8.688,27.189-45.706,25.65-51.282L248.301,266.974z"/>
							<path style="opacity:0.2;enable-background:new    ;" d="M231.522,282.159c1.616-4.369,2.73-7.406,4.307-12.349
								c0.079-0.052,0.164-0.096,0.253-0.131c2.042-0.954,4.232-1.134,1.386,4.866C237.468,274.545,232.633,281.729,231.522,282.159
								z"/>
							<path style="fill:#F7978D;" d="M254.343,274.711c-6.025-2.698-6.348-7.305-6.348-7.305c3.894-1.247,6.482-8.693,7.565-12.955
								l1.812,4.253l2.467,5.795c-0.422,0.511-0.813,1.047-1.172,1.604c-1.433,2.211-1.925,4.654,1.093,7.236
								C259.76,273.339,259.488,276.99,254.343,274.711z"/>
							<g>
								<path style="fill:#407BFF;" d="M247.022,266.349l2.148,0.263c0.959,2.967,4.033,5.995,6.218,8.221
									c-1.526,0.179-2.964,0.808-4.132,1.807C246.106,271.309,247.022,266.349,247.022,266.349z"/>
								<path style="opacity:0.7;fill:#FFFFFF;" d="M249.17,266.613c0.959,2.967,4.033,5.995,6.218,8.221
									c-1.526,0.179-2.964,0.808-4.132,1.807c-5.149-5.331-4.233-10.291-4.233-10.291"/>
							</g>
							<path style="fill:#407BFF;" d="M259.908,273.002l-1.503-1.22c0,0-2.483,3.153-4.468,2.754
								c2.42,2.729,2.151,4.478,2.151,4.478C261.16,279.848,259.908,273.002,259.908,273.002z"/>
							<g>
								<g>
									<g>
										<path style="fill:#F7978D;" d="M303.262,279.712c0.015-0.805,2.397-4.706,2.96-4.538c0.563,0.168,2.043,2.316,1.999,2.678
											c-0.082,0.666-1.494,5.743-4.715,5.936C302.269,283.862,303.262,279.712,303.262,279.712z"/>
										<path style="fill:#F7978D;" d="M306.223,275.173c0,0,1.917-1.343,2.676-1.126c0.759,0.217,1.906,1.333,1.906,1.333
											l-2.584,2.471L306.223,275.173z"/>
									</g>
									<polygon style="fill:#F7978D;" points="300.174,280.19 303.304,280.219 303.507,283.787 297.549,284.144 									"/>
								</g>
								<g>
									<path style="fill:#263238;" d="M301.655,280.133l-1.072,5.079l-19.818,1.542c-0.747-0.088-16.614-1.685-18.013-1.825
										l-1.3-11.032c0.774,0.229,9.613,3.224,18.982,5.362C282.604,279.219,301.655,280.133,301.655,280.133z"/>
								</g>
								<g style="opacity:0.2;enable-background:new    ;">
									<path d="M301.655,280.133l-1.072,5.079l-19.818,1.542c-0.747-0.088-16.614-1.685-18.013-1.825l-1.3-11.032
										c0.774,0.229,9.613,3.224,18.982,5.362C282.604,279.219,301.655,280.133,301.655,280.133z"/>
								</g>
								<path style="opacity:0.2;enable-background:new    ;" d="M273.886,286.051c-3.529-0.361-8.862-0.895-11.134-1.122
									l-0.486-4.124C263.916,281.697,269.918,284,273.886,286.051z"/>
							</g>
							<path style="fill:#263238;" d="M247.994,326.448l-4.819-2.9c12.541-19.897,17.642-43.223,16.632-50.514
								c1.827,1.056,1.879,0.684,3.582,1.929c1.755,1.534,2.576,3.876,2.164,6.17C265.543,287.227,262.231,295.012,247.994,326.448z
								"/>
							<path style="opacity:0.7;fill:#FFFFFF;" d="M259.908,273.002l-1.503-1.22c0,0-2.483,3.153-4.468,2.754
								c2.42,2.729,2.151,4.478,2.151,4.478C261.16,279.848,259.908,273.002,259.908,273.002z"/>
							<path style="opacity:0.2;enable-background:new    ;" d="M259.023,265.587l-2.371-5.525c-0.318,0.529-0.579,1.088-0.778,1.67
								c-0.609,1.766,0.638,4.551,2.071,5.718L259.023,265.587z"/>
							<path style="fill:#F7978D;" d="M260.747,244.917c3.55-2.304,8.296-1.293,10.599,2.257c3.491,5.1-0.354,12.877-4.128,16.621
								c-1.069,1.102-2.449,1.852-3.955,2.151c-4.098,0.814-8.081-1.848-8.895-5.946c-0.882-4.161,0.978-7.02,3.729-12.15
								C258.71,246.658,259.623,245.647,260.747,244.917z"/>
							<path style="fill:#263238;" d="M254.191,258.773c0,0,0.664-4.753,3.681-5.327c0.257-2.756,2.3-1.21,3.409-2.693
								c1.459-1.648,2.773-3.272,1.752-5.407l-2.89-1.872C250.837,239.946,254.191,258.773,254.191,258.773z"/>
							<path style="fill:#FF5652;" d="M266.698,260.695c0.657,0.435,1.473,0.558,2.229,0.336c-0.515-1.485-0.826-3.033-0.925-4.601
								L266.698,260.695z"/>
							<path style="fill:#F7978D;" d="M257.462,249.805c1.684,0.551,1.948,2.238,1.506,3.62c-0.348,2.121-1.85,3.585-3.498,1.867
								c-0.658-1.076-0.924-2.347-0.751-3.597C254.933,250.12,256.079,249.352,257.462,249.805z"/>
							<path style="fill:#263238;" d="M265.693,254.342c0.256,0.174,0.24,0.68,0.011,1.042c-0.229,0.362-0.636,0.548-0.896,0.381
								c-0.259-0.167-0.23-0.616-0.014-1.035C265.043,254.327,265.437,254.168,265.693,254.342z"/>
							<path style="fill:#263238;" d="M270.336,256.447c0.256,0.174,0.264,0.633,0.014,1.035c-0.249,0.402-0.66,0.595-0.916,0.421
								c-0.256-0.174-0.26-0.64-0.011-1.042C269.669,256.465,270.08,256.273,270.336,256.447z"/>
							<path style="fill:#263238;" d="M266.836,252.917c-0.079,0.049-0.175,0.057-0.261,0.023c-0.64-0.328-1.395-0.344-2.049-0.046
								c-0.127,0.077-0.293,0.037-0.371-0.09c-0.002-0.004-0.005-0.008-0.007-0.012c-0.071-0.133-0.027-0.299,0.102-0.377l0,0
								c0.809-0.394,1.757-0.385,2.559,0.023c0.136,0.069,0.194,0.233,0.13,0.372C266.913,252.853,266.878,252.889,266.836,252.917z
								"/>
							<path style="fill:#263238;" d="M271.78,256.387c-0.09-0.023-0.163-0.087-0.198-0.172c-0.208-0.688-0.721-1.243-1.39-1.506
								c-0.144-0.038-0.23-0.185-0.193-0.329c0.001-0.004,0.003-0.009,0.004-0.013c0.046-0.144,0.196-0.227,0.342-0.188l0,0
								c0.846,0.309,1.497,0.997,1.76,1.858c0.045,0.146-0.033,0.301-0.177,0.352C271.88,256.397,271.829,256.397,271.78,256.387z"
								/>
							<path style="fill:#263238;" d="M275.256,246.595c-0.673,1.428-2.224,2.06-3.576,1.787c-1.99-0.402-6.742-2.843-7.24-3.072
								c-0.498-0.229-1.078-0.292-1.555-0.005c-0.477,0.287-0.651,0.919-0.466,1.517c-1.564-0.755-3.894-2.368-5.262-3.548
								c-0.17-0.785,0.232-2.285,0.727-2.839c0.495-0.554,1.18-0.822,1.857-0.864c0.677-0.042,1.352,0.126,2.003,0.352
								c1.68,0.58,4.253,1.765,5.803,2.734c1.376,0.86,2.875,1.808,4.398,1.45c0.452-0.106,0.765-0.672,0.759-1.223
								c0.372,0.43,0.7,0.915,0.976,1.438c0.246-0.479,0.38-1.029,0.269-1.575C274.767,243.478,275.758,245.532,275.256,246.595z"/>
						</g>
						<g>
							<g>
								<path style="fill:#F7978D;" d="M291.778,290.103c0.201-0.861,3.66-4.508,4.226-4.199c0.567,0.31,1.664,2.96,1.533,3.338
									c-0.242,0.697-2.926,5.831-6.434,5.298C289.757,294.337,291.778,290.103,291.778,290.103z"/>
								<path style="fill:#F7978D;" d="M296.005,285.905c0,0,2.37-1.003,3.136-0.596c0.766,0.408,1.743,1.871,1.743,1.871
									l-3.346,2.063L296.005,285.905z"/>
							</g>
							<polygon style="fill:#F7978D;" points="288.348,289.908 291.778,290.103 291.104,294.542 284.616,293.556 							"/>
						</g>
						<g>
							<g>
								<path style="fill:#263238;" d="M244.77,265.72c-7.045-5.218-12.309,2.948-9.03,8.51
									c1.277,2.165,12.409,10.685,23.769,14.613c9.492,3.282,26.072,6.365,29.188,6.802l1.024-6.738l-27.878-8.228L244.77,265.72z
									"/>
							</g>
						</g>
					</g>
				</g>
				
					<rect x="234.907" y="314.723" transform="matrix(0.9238 0.3828 -0.3828 0.9238 139.5622 -65.99)" style="fill:#263238;" width="1.36" height="5.891"/>
			</g>
			<g>
				<path style="fill:#263238;" d="M266.584,262.152c0,0-1.329-1.177-5.662-3.359c-0.3,1.702,0,3.346,2.222,4.466
					c1.044,0.677,2.529,0.27,3.318-0.908C266.505,262.287,266.546,262.22,266.584,262.152z"/>
				<path style="fill:#FF5652;" d="M262.762,261.587c0.882,0.378,1.591,1.053,2.026,1.928c-0.577,0.09-1.146-0.003-1.628-0.269
					c-0.882-0.375-1.59-1.049-2.022-1.925C261.715,261.224,262.284,261.317,262.762,261.587z"/>
				<path style="fill:#FFFFFF;" d="M266.408,262.013c-0.289,0.316-0.703,0.46-1.077,0.374c-1.282-0.655-2.497-1.427-3.632-2.307
					c-0.386-0.251-0.601-0.703-0.575-1.204C262.979,259.768,264.745,260.817,266.408,262.013z"/>
			</g>
		</g>
	</g>
</g>
<g id="Ball">
	<g>
		<path style="fill:#407BFF;" d="M457.08,336.25c0,47.7-38.66,86.36-86.36,86.36c-27.12,0-51.31-12.49-67.15-32.04
			c-6.01-7.43-10.82-15.87-14.12-25.04c-3.29-9.14-5.09-19-5.09-29.28c0-47.69,38.66-86.36,86.36-86.36
			c10.27,0,20.12,1.79,29.25,5.08c9.18,3.3,17.63,8.12,25.06,14.14C444.58,284.94,457.08,309.13,457.08,336.25z"/>
		<path style="opacity:0.1;fill:#FFFFFF;" d="M405.06,285.6c-0.71,46.53-38.79,84.46-85.31,85c-2.42,0.03-4.81-0.04-7.18-0.2
			c-14.89-1.05-26.81-12.94-27.97-27.79c-0.02-0.09-0.02-0.19-0.03-0.28c-0.06-0.86-0.11-1.73-0.14-2.6
			c-0.02-0.52-0.04-1.04-0.05-1.56c-0.01-0.63-0.02-1.26-0.02-1.9v-0.04c0-0.45,0-0.89,0.01-1.34c0-0.19,0.01-0.39,0.02-0.58
			c0-0.26,0-0.51,0.02-0.76c0-0.4,0.02-0.8,0.04-1.2c0.02-0.6,0.06-1.19,0.1-1.78v-0.04c0.03-0.51,0.07-1.03,0.12-1.54
			c0.02-0.39,0.06-0.78,0.1-1.16c0.05-0.52,0.11-1.04,0.17-1.55c0.16-1.42,0.36-2.83,0.59-4.22c6.07-36.29,35.01-65.12,71.32-71.05
			c1.38-0.22,2.78-0.41,4.18-0.57c0.04-0.01,0.07-0.01,0.1-0.02c0.69-0.07,1.38-0.14,2.07-0.2c0.72-0.06,1.43-0.12,2.15-0.16
			c0.6-0.04,1.2-0.07,1.79-0.09c0.26-0.02,0.52-0.03,0.78-0.03c0.45-0.02,0.91-0.03,1.36-0.03c0.14-0.01,0.27-0.01,0.41-0.01
			c0.36,0,0.73-0.01,1.09-0.01c0.62,0,1.24,0.01,1.86,0.02c0.57,0.01,1.13,0.03,1.69,0.05c0.16,0.01,0.33,0.02,0.49,0.03
			c0.55,0.02,1.09,0.05,1.63,0.09c0.14,0,0.27,0.01,0.41,0.02c0.18,0.01,0.37,0.03,0.55,0.05c14.72,1.31,26.41,13.22,27.45,28.02
			C405.03,280.62,405.1,283.1,405.06,285.6z"/>
		<path style="opacity:0.1;fill:#FFFFFF;" d="M444.25,323.42c0,47.7-38.67,86.36-86.36,86.36c-20.58,0-39.48-7.2-54.32-19.21
			c-6.01-7.43-10.82-15.87-14.12-25.04c-2.61-7.24-4.28-14.93-4.85-22.92c1.16,14.85,13.08,26.74,27.97,27.79
			c2.37,0.16,4.76,0.23,7.18,0.2c46.52-0.54,84.6-38.47,85.31-85c0.04-2.5-0.03-4.98-0.2-7.43c-1.04-14.8-12.73-26.71-27.45-28.02
			c7.86,0.6,15.43,2.25,22.56,4.82c9.18,3.3,17.63,8.12,25.06,14.14C437.05,283.94,444.25,302.84,444.25,323.42z"/>
		<g>
			<g>
				<path style="fill:none;stroke:#407BFF;stroke-linecap:round;stroke-linejoin:round;stroke-miterlimit:10;" d="M336.245,418.733
					c-13.477-5.626-25.519-14.562-35.008-26.275"/>
				<path style="opacity:0.1;fill:#FFFFFF;" d="M405.06,285.6c-0.71,46.53-38.79,84.46-85.31,85c-2.42,0.03-4.81-0.04-7.18-0.2
					c-14.89-1.05-26.81-12.94-27.97-27.79c-0.02-0.09-0.02-0.19-0.03-0.28c-0.06-0.86-0.11-1.73-0.14-2.6
					c-0.02-0.52-0.04-1.04-0.05-1.56c-0.01-0.63-0.02-1.26-0.02-1.9v-0.04c0-0.64,0.01-1.28,0.03-1.92c0-0.26,0-0.51,0.02-0.76
					c0-0.4,0.02-0.8,0.04-1.2c0.02-0.6,0.06-1.19,0.1-1.78v-0.04c0.03-0.51,0.07-1.03,0.12-1.54c0.02-0.39,0.06-0.78,0.1-1.16
					c0.05-0.52,0.11-1.04,0.17-1.55c0.15-1.42,0.35-2.83,0.59-4.22c6.01-36.43,34.84-65.17,71.32-71.05
					c1.38-0.23,2.77-0.43,4.18-0.57c0.04-0.01,0.07-0.01,0.1-0.02c0.69-0.07,1.38-0.14,2.07-0.2c0.72-0.06,1.43-0.12,2.15-0.16
					c0.6-0.04,1.2-0.07,1.79-0.09c0.26-0.02,0.52-0.03,0.78-0.03c0.45-0.02,0.91-0.03,1.36-0.03c0.14-0.01,0.27-0.01,0.41-0.01
					c0.36,0,0.73-0.01,1.09-0.01c0.62,0,1.24,0.01,1.86,0.02c0.57,0.01,1.13,0.03,1.69,0.05c0.16,0.01,0.33,0.02,0.49,0.03
					c0.55,0.02,1.09,0.05,1.63,0.09c0.32,0.02,0.64,0.04,0.96,0.07c14.72,1.31,26.41,13.22,27.45,28.02
					C405.03,280.62,405.1,283.1,405.06,285.6z"/>
			</g>
		</g>
		<g>
			<path style="fill:none;stroke:#407BFF;stroke-linecap:round;stroke-linejoin:round;stroke-miterlimit:10;" d="M417.521,260.13
				c3.263,2.004,6.403,4.223,9.395,6.648"/>
			<path style="fill:none;stroke:#407BFF;stroke-linecap:round;stroke-linejoin:round;stroke-miterlimit:10;" d="M370.717,246.89
				c13.381,0,26.566,3.034,38.519,8.736"/>
		</g>
	</g>
</g>
</svg>
